P2
24 7
255
0 0 0 0 0 0 0 0 0 0 0 0 0 0 0 0 0 0 0 0 0 0 0 0 
0 80 56 24 8 255 255 80 56 24 8 255 255 80 56 24 8 255 255 80 56 152 72 0 
0 198 255 255 255 255 255 198 255 255 255 255 255 198 255 255 255 255 255 198 255 255 99 0 
0 82 57 8 255 255 255 82 57 8 255 255 255 82 57 8 255 255 255 82 57 28 10 0 
0 70 255 255 255 255 255 198 255 255 255 255 255 198 255 255 255 255 255 70 255 255 255 0 
0 2 255 255 255 255 255 18 25 24 8 255 255 18 25 24 8 255 255 2 255 255 255 0 
0 0 0 0 0 0 0 0 0 0 0 0 0 0 0 0 0 0 0 0 0 0 0 0 
